<svg width="31" height="31" viewBox="0 0 31 31" fill="none" xmlns="http://www.w3.org/2000/svg">
<path d="M30.9969 14.4257C30.8991 14.6448 30.775 14.8512 30.6274 15.0405C30.4728 15.2103 30.2693 15.328 30.0449 15.3776C29.8205 15.4271 29.5862 15.406 29.3743 15.3171C29.1524 15.2416 28.9583 15.1014 28.8172 14.9145C28.6761 14.7276 28.5945 14.5027 28.583 14.2689C28.5753 14.1174 28.5753 13.9655 28.583 13.814V7.48488C28.583 5.87417 27.5669 4.85672 25.9566 4.85672H24.5772C24.5772 5.28091 24.5926 5.69281 24.5772 6.10164C24.5721 6.31425 24.5105 6.5217 24.3989 6.70282C24.2872 6.88393 24.1294 7.03222 23.9416 7.13255C23.7537 7.23287 23.5426 7.28164 23.3297 7.27388C23.1168 7.26611 22.9098 7.20209 22.7298 7.08835C22.5556 6.98259 22.4118 6.83354 22.3125 6.65576C22.2132 6.47797 22.1618 6.27752 22.1632 6.07397C22.1632 5.68359 22.1632 5.29013 22.1632 4.87823H16.6487V5.8004C16.6487 6.72256 16.1931 7.26356 15.4449 7.26971C14.6967 7.27586 14.2286 6.71641 14.2132 5.7881V4.86594H8.77572C8.77572 5.25325 8.77572 5.65285 8.77572 6.04938C8.77754 6.20762 8.74812 6.36466 8.68915 6.51155C8.63017 6.65844 8.54279 6.79229 8.432 6.90547C8.20825 7.13403 7.90271 7.2645 7.5826 7.26817C7.26249 7.27184 6.95404 7.14841 6.72509 6.92503C6.49614 6.70165 6.36545 6.39662 6.36178 6.07704C6.36178 5.67744 6.36178 5.27476 6.36178 4.81368C5.66813 4.80775 4.97486 4.8478 4.28652 4.93356C3.76477 5.04861 3.2977 5.33735 2.962 5.75237C2.62629 6.16738 2.44191 6.68402 2.43912 7.21745C2.43912 7.29737 2.43912 7.37729 2.43912 7.45721V25.9896C2.43912 27.0378 2.84555 27.8677 3.81236 28.3196C4.20044 28.4899 4.62005 28.5768 5.04396 28.5747C8.01828 28.5962 10.9957 28.5901 13.9731 28.5747C14.1598 28.5615 14.3473 28.5874 14.5234 28.651C14.6994 28.7145 14.8602 28.8142 14.9953 28.9436C15.1301 29.0812 15.23 29.249 15.2867 29.433C15.3433 29.617 15.3551 29.8119 15.3211 30.0013C15.287 30.1908 15.2081 30.3694 15.091 30.5223C14.9738 30.6751 14.8217 30.7978 14.6474 30.8801L14.3734 31H4.29884C3.96015 30.9139 3.61222 30.8494 3.28277 30.7356C2.31374 30.4069 1.47405 29.7799 0.884318 28.9449C0.294588 28.1098 -0.0148205 27.1096 0.000545875 26.088C0.000545875 19.8316 0.000545875 13.5742 0.000545875 7.31581C0.000545875 7.20516 0.000545875 7.0945 0.000545875 6.98384C0.0358342 6.23487 0.253549 5.50579 0.634822 4.85979C1.05662 4.10721 1.67462 3.48266 2.42325 3.05241C3.17188 2.62217 4.02322 2.40227 4.88693 2.41606C5.36726 2.41606 5.84758 2.41606 6.34638 2.41606C6.34638 2.08716 6.34638 1.80129 6.34638 1.4939C6.29656 1.16821 6.36894 0.835619 6.54963 0.559924C6.73033 0.284229 7.00662 0.0848397 7.32551 0H7.80891C8.12873 0.0868646 8.40505 0.288772 8.58468 0.566849C8.76431 0.844926 8.83455 1.17952 8.78188 1.5062C8.76032 1.81358 8.78188 2.10253 8.78188 2.40069H14.2256C14.2256 2.09331 14.244 1.78592 14.2256 1.5062C14.1728 1.17993 14.2426 0.845682 14.4216 0.56767C14.6006 0.289659 14.8762 0.0874894 15.1955 0H15.6789C15.999 0.0862546 16.2758 0.288031 16.4555 0.566273C16.6353 0.844514 16.7052 1.17943 16.6518 1.5062C16.6333 1.81358 16.6518 2.10253 16.6518 2.40069H22.1571C22.1571 2.09331 22.1756 1.78592 22.1571 1.5062C22.1043 1.17993 22.1741 0.845682 22.3531 0.56767C22.5321 0.289659 22.8077 0.0874894 23.127 0H23.6104C23.9368 0.0865405 24.2184 0.292977 24.3988 0.577972C24.5792 0.862967 24.6451 1.20548 24.5833 1.53694C24.5649 1.84432 24.5833 2.13327 24.5833 2.4591C25.1991 2.4591 25.7503 2.43143 26.3107 2.4591C27.1945 2.47415 28.0562 2.73766 28.7969 3.21937C29.5375 3.70109 30.1272 4.38151 30.4981 5.18255C30.7073 5.68977 30.8751 6.213 31 6.74715L30.9969 14.4257Z" fill="#4D4041"/>
<path d="M22.8188 31.0001C22.0884 30.862 21.3665 30.6869 20.656 30.4755C19.0643 29.8823 17.7346 28.7945 16.8863 27.3917C16.0381 25.9889 15.7221 24.355 15.9906 22.7599C16.5241 19.9272 18.236 17.9638 21.1134 17.0825C24.0606 16.1833 26.6998 16.8547 28.8944 18.929C30.0554 20.0364 30.7795 21.4857 30.946 23.0356C30.9591 23.1125 30.9772 23.1886 31 23.2635V24.4325C30.981 24.5284 30.9556 24.6213 30.9397 24.7173C30.4728 27.5409 28.8436 29.5133 26.0265 30.5355C25.3861 30.7281 24.7324 30.8794 24.0702 30.9881L22.8188 31.0001ZM28.5006 23.833C28.4955 22.8899 28.1946 21.9694 27.6357 21.1877C27.0768 20.406 26.285 19.7981 25.3604 19.4407C24.4357 19.0834 23.4196 18.9927 22.4403 19.18C21.461 19.3673 20.5625 19.8243 19.8582 20.4932C19.1539 21.1621 18.6753 22.013 18.483 22.9384C18.2907 23.8639 18.3932 24.8223 18.7776 25.6928C19.162 26.5633 19.811 27.3068 20.6428 27.8293C21.4745 28.3519 22.4517 28.6302 23.4508 28.629C24.793 28.6211 26.0774 28.1123 27.0235 27.2137C27.9696 26.3152 28.5006 25.0998 28.5006 23.833Z" fill="#4D4041"/>
<path d="M8.74349 12.3148C8.74465 12.55 8.67624 12.7802 8.54687 12.9766C8.41751 13.173 8.23296 13.3268 8.01644 13.4185C7.79992 13.5103 7.5611 13.536 7.33002 13.4923C7.09894 13.4487 6.88592 13.3377 6.71775 13.1733C6.54959 13.009 6.43379 12.7985 6.38492 12.5685C6.33605 12.3384 6.35629 12.0991 6.4431 11.8805C6.52991 11.662 6.67941 11.474 6.8728 11.3402C7.06619 11.2064 7.29482 11.1327 7.52994 11.1286C7.68768 11.1262 7.84433 11.155 7.99087 11.2134C8.13741 11.2718 8.27093 11.3587 8.38374 11.469C8.49655 11.5792 8.58642 11.7108 8.64817 11.8559C8.70991 12.0011 8.7423 12.1571 8.74349 12.3148Z" fill="#4D4041"/>
<path d="M14.3074 12.342C14.3032 12.5768 14.2297 12.8052 14.0962 12.9985C13.9626 13.1917 13.775 13.3413 13.5568 13.4283C13.3386 13.5152 13.0995 13.5359 12.8697 13.4875C12.6398 13.4391 12.4293 13.3239 12.2647 13.1563C12.1 12.9888 11.9886 12.7763 11.9443 12.5456C11.8999 12.3149 11.9248 12.0763 12.0156 11.8597C12.1064 11.643 12.2592 11.4581 12.4548 11.328C12.6504 11.1979 12.8801 11.1285 13.115 11.1284C13.2732 11.1292 13.4296 11.1613 13.5753 11.2228C13.721 11.2843 13.8531 11.3741 13.9639 11.4869C14.0747 11.5997 14.1622 11.7334 14.2211 11.8801C14.2801 12.0269 14.3094 12.1838 14.3074 12.342Z" fill="#4D4041"/>
<path d="M19.0769 12.3452C19.072 12.5807 18.9975 12.8095 18.8628 13.0027C18.7281 13.1959 18.5392 13.3449 18.3198 13.4308C18.1005 13.5168 17.8607 13.5358 17.6305 13.4856C17.4004 13.4354 17.1903 13.3182 17.0267 13.1487C16.8632 12.9792 16.7535 12.765 16.7115 12.5333C16.6695 12.3015 16.6971 12.0625 16.7908 11.8464C16.8845 11.6303 17.0401 11.4468 17.238 11.319C17.4359 11.1913 17.6672 11.125 17.9027 11.1286C18.2195 11.1349 18.5209 11.2665 18.7409 11.4945C18.961 11.7225 19.0817 12.0284 19.0769 12.3452Z" fill="#4D4041"/>
<path d="M24.641 12.3179C24.6415 12.5529 24.5726 12.7829 24.4429 12.9788C24.3131 13.1748 24.1284 13.3281 23.9118 13.4194C23.6952 13.5107 23.4565 13.536 23.2256 13.492C22.9947 13.448 22.782 13.3368 22.6141 13.1723C22.4463 13.0078 22.3308 12.7973 22.2821 12.5674C22.2335 12.3374 22.2539 12.0982 22.3408 11.8798C22.4277 11.6615 22.5773 11.4736 22.7706 11.34C22.9639 11.2063 23.1924 11.1327 23.4274 11.1286C23.5854 11.1261 23.7423 11.1551 23.889 11.2137C24.0358 11.2723 24.1694 11.3594 24.2823 11.47C24.3951 11.5806 24.4849 11.7125 24.5465 11.858C24.6081 12.0036 24.6402 12.1598 24.641 12.3179Z" fill="#4D4041"/>
<path d="M8.74344 17.8727C8.7458 18.1081 8.67842 18.339 8.54979 18.5361C8.42116 18.7333 8.23704 18.888 8.02063 18.9807C7.80423 19.0734 7.56523 19.0999 7.33376 19.057C7.10229 19.0141 6.88871 18.9036 6.71994 18.7394C6.55117 18.5753 6.43477 18.3649 6.3854 18.1347C6.33603 17.9045 6.35591 17.6648 6.44253 17.4459C6.52915 17.227 6.67864 17.0386 6.87214 16.9046C7.06565 16.7705 7.29452 16.6967 7.5299 16.6925C7.84722 16.6884 8.15319 16.8104 8.38069 17.0317C8.60819 17.2529 8.73865 17.5554 8.74344 17.8727Z" fill="#4D4041"/>
<path d="M14.3074 17.8757C14.3092 18.111 14.2413 18.3416 14.1123 18.5384C13.9833 18.7351 13.799 18.8894 13.5825 18.9816C13.366 19.0738 13.1271 19.0999 12.8959 19.0567C12.6646 19.0134 12.4513 18.9026 12.2828 18.7384C12.1143 18.5741 11.9982 18.3637 11.9491 18.1336C11.9 17.9034 11.9201 17.6639 12.0068 17.4452C12.0935 17.2265 12.243 17.0383 12.4364 16.9043C12.6299 16.7704 12.8586 16.6967 13.0939 16.6925C13.2513 16.6905 13.4075 16.7195 13.5537 16.7779C13.6998 16.8363 13.833 16.9229 13.9457 17.0327C14.0584 17.1426 14.1484 17.2736 14.2104 17.4183C14.2725 17.5629 14.3055 17.7183 14.3074 17.8757Z" fill="#4D4041"/>
<path d="M8.7435 23.4548C8.74228 23.6909 8.67102 23.9212 8.53873 24.1168C8.40645 24.3123 8.2191 24.4642 8.00042 24.5531C7.78175 24.642 7.54159 24.6641 7.31038 24.6164C7.07918 24.5687 6.86733 24.4535 6.70168 24.2853C6.53603 24.1171 6.42405 23.9035 6.37991 23.6716C6.33577 23.4397 6.36147 23.1999 6.45375 22.9826C6.54604 22.7653 6.70074 22.5803 6.89827 22.451C7.0958 22.3217 7.32726 22.254 7.56332 22.2564C7.87824 22.2604 8.17885 22.3885 8.39984 22.6129C8.62082 22.8373 8.74432 23.1398 8.7435 23.4548Z" fill="#4D4041"/>
<path d="M13.1364 22.2564C13.3714 22.2606 13.5999 22.3342 13.7932 22.4679C13.9866 22.6015 14.1361 22.7893 14.223 23.0077C14.3099 23.2261 14.3303 23.4653 14.2817 23.6953C14.2331 23.9252 14.1176 24.1357 13.9497 24.3002C13.7818 24.4647 13.5691 24.5759 13.3382 24.6199C13.1073 24.6639 12.8686 24.6386 12.652 24.5473C12.4354 24.456 12.2507 24.3028 12.1209 24.1068C11.9912 23.9108 11.9223 23.6808 11.9229 23.4458C11.924 23.2879 11.9564 23.1318 12.0181 22.9864C12.0798 22.8411 12.1696 22.7094 12.2824 22.5988C12.3952 22.4883 12.5287 22.4012 12.6752 22.3424C12.8218 22.2837 12.9785 22.2544 13.1364 22.2564Z" fill="#4D4041"/>
<path d="M24.5635 23.0668C24.7741 23.0668 24.9466 23.0668 25.1162 23.0668C25.4185 23.0762 25.705 23.2068 25.9136 23.4303C26.1222 23.6539 26.236 23.9523 26.2305 24.261C26.2306 24.5634 26.1152 24.8539 25.9088 25.0708C25.7023 25.2876 25.4211 25.4137 25.125 25.4223C24.5401 25.4402 23.9552 25.4402 23.3703 25.4223C23.0785 25.4176 22.8002 25.2966 22.5947 25.0852C22.3892 24.8738 22.2729 24.5887 22.2706 24.2908C22.2531 23.4609 22.2502 22.628 22.2706 21.795C22.2768 21.4925 22.3992 21.2046 22.6115 20.9935C22.8238 20.7824 23.109 20.6649 23.4054 20.6666C23.7059 20.6634 23.9955 20.7813 24.2113 20.9949C24.427 21.2084 24.5515 21.5003 24.5577 21.807C24.5752 22.204 24.5635 22.616 24.5635 23.0668Z" fill="#4D4041"/>
</svg>
