<svg width="20" height="20" viewBox="0 0 20 20" fill="none" xmlns="http://www.w3.org/2000/svg">
<path d="M10 17.7C14.2526 17.7 17.7 14.2526 17.7 10C17.7 5.74741 14.2526 2.3 10 2.3C5.74741 2.3 2.3 5.74741 2.3 10C2.3 14.2526 5.74741 17.7 10 17.7ZM10 19.5C4.75329 19.5 0.5 15.2467 0.5 10C0.5 4.75329 4.75329 0.5 10 0.5C15.2467 0.5 19.5 4.75329 19.5 10C19.5 15.2467 15.2467 19.5 10 19.5ZM10 7.74634C9.30964 7.74634 8.75 7.18669 8.75 6.49634C8.75 5.80598 9.30964 5.24634 10 5.24634C10.6904 5.24634 11.25 5.80598 11.25 6.49634C11.25 7.18669 10.6904 7.74634 10 7.74634ZM9.1 10.4274C9.1 9.91318 9.50294 9.49634 10 9.49634C10.4971 9.49634 10.9 9.91318 10.9 10.4274V14.0653C10.9 14.5795 10.4971 14.9963 10 14.9963C9.50294 14.9963 9.1 14.5795 9.1 14.0653V10.4274Z" fill="#281C1F"/>
</svg>
