<svg width="68" height="65" viewBox="0 0 68 65" fill="none" xmlns="http://www.w3.org/2000/svg">
<path d="M25.5414 53.8445L26.5118 54.9883L25.5414 53.8445ZM26.4064 53.6277L26.7129 52.1593L26.4064 53.6277ZM13.0989 62.2589L11.5992 62.2854L13.0989 62.2589ZM14.7457 63.0037L15.7161 64.1475L14.7457 63.0037ZM12.4514 47.3032L13.372 46.119L12.4514 47.3032ZM12.8481 48.0881L11.3484 48.1147L12.8481 48.0881ZM64.9579 27.4541C65.197 40.966 52.0269 52.6187 34.9038 52.9218L34.9569 55.9213C53.1745 55.5989 68.2349 43.0805 67.9574 27.4011L64.9579 27.4541ZM34.0215 3.06588C51.1446 2.76285 64.7188 13.9423 64.9579 27.4541L67.9574 27.4011C67.68 11.7216 52.1861 -0.256051 33.9684 0.0663454L34.0215 3.06588ZM3.96746 28.5335C3.72834 15.0217 16.8985 3.3689 34.0215 3.06588L33.9684 0.0663454C15.7508 0.388742 0.690447 12.9071 0.967925 28.5866L3.96746 28.5335ZM13.372 46.119C7.63035 41.6554 4.08934 35.4207 3.96746 28.5335L0.967925 28.5866C1.10845 36.527 5.19648 43.5632 11.5307 48.4875L13.372 46.119ZM14.5987 62.2324L14.3479 48.0616L11.3484 48.1147L11.5992 62.2854L14.5987 62.2324ZM24.571 52.7007L13.7753 61.8599L15.7161 64.1475L26.5118 54.9883L24.571 52.7007ZM34.9038 52.9218C32.0698 52.9719 29.3229 52.7041 26.7129 52.1593L26.1 55.096C28.9294 55.6866 31.8996 55.9754 34.9569 55.9213L34.9038 52.9218ZM26.5118 54.9883C26.3896 55.092 26.2357 55.1244 26.1 55.096L26.7129 52.1593C25.9641 52.003 25.1708 52.1918 24.571 52.7007L26.5118 54.9883ZM11.5992 62.2854C11.6365 64.3944 14.1078 65.5121 15.7161 64.1475L13.7753 61.8599C14.097 61.587 14.5912 61.8106 14.5987 62.2324L11.5992 62.2854ZM11.5307 48.4875C11.4266 48.4065 11.3512 48.2738 11.3484 48.1147L14.3479 48.0616C14.3342 47.2863 13.9626 46.5781 13.372 46.119L11.5307 48.4875Z" fill="#4D4041"/>
<path d="M35.9393 21.7905L35.9469 21.8042L35.9547 21.8178C36.4446 22.6647 37.2152 23.0948 37.7742 23.3268L37.8965 23.3776L38.0258 23.4061L40.9692 24.0558L38.9198 26.4476C38.2819 27.1328 37.989 28.0946 38.1249 29.0376L38.4288 32.0637L35.7853 30.8172L35.7532 30.802L35.7205 30.7884C34.9309 30.4608 34.0114 30.4608 33.2218 30.7884L33.189 30.802L33.1569 30.8172L30.5135 32.0637L30.8173 29.038C30.9672 28.0042 30.5883 27.1751 30.0949 26.5352L30.0713 26.5046L30.0461 26.4752L27.9731 24.0558L30.8886 23.4122C31.9989 23.2046 32.6359 22.4257 32.9876 21.8178L32.9954 21.8042L33.003 21.7905L34.4711 19.1251L35.9393 21.7905Z" stroke="#4D4041" stroke-width="3"/>
<path d="M18.2915 24.8336L18.2991 24.8473L18.3069 24.8609C18.7372 25.6049 19.4087 25.9733 19.8685 26.1641L19.9909 26.2149L20.1202 26.2434L21.7958 26.6133L20.6164 27.9897C20.0591 28.5917 19.8059 29.4289 19.9216 30.2478L20.0909 31.9341L18.6334 31.2468L18.6013 31.2317L18.5686 31.2181C17.8782 30.9316 17.0777 30.9316 16.3873 31.2181L16.3545 31.2317L16.3224 31.2468L14.865 31.9341L15.0342 30.2483C15.1637 29.3388 14.8251 28.6133 14.4109 28.0761L14.3873 28.0455L14.3621 28.0161L13.1601 26.6133L14.8089 26.2493C15.7992 26.062 16.3566 25.3663 16.649 24.8609L16.6568 24.8473L16.6644 24.8336L17.4779 23.3566L18.2915 24.8336Z" stroke="#4D4041" stroke-width="3"/>
<path d="M51.6063 24.7897L51.6131 24.8031L51.6202 24.8163C52.0172 25.56 52.6495 25.9434 53.102 26.1468L53.2308 26.2047L53.3682 26.2376L54.8863 26.6006L53.752 28.0346C53.2342 28.6408 53.0172 29.4559 53.1192 30.234L53.2685 31.8452L52.1381 31.2678L52.1048 31.2508L52.0707 31.2354C51.382 30.9258 50.5772 30.9258 49.8885 31.2354L49.8545 31.2508L49.8212 31.2678L48.6907 31.8452L48.84 30.2345C48.9546 29.3669 48.6598 28.6641 48.2741 28.1222L48.2521 28.0913L48.2285 28.0616L47.073 26.6006L48.563 26.2443C49.5571 26.0393 50.0829 25.2962 50.3391 24.8163L50.3461 24.8031L50.3529 24.7897L50.9796 23.5572L51.6063 24.7897Z" stroke="#4D4041" stroke-width="3"/>
</svg>
