<svg width="27" height="27" viewBox="0 0 27 27" fill="none" xmlns="http://www.w3.org/2000/svg">
<path d="M18.326 6.13975H12.2029C12.0013 6.1449 11.7996 6.13037 11.6008 6.09636C11.366 6.0446 11.1539 5.91743 10.9958 5.73365C10.8377 5.54987 10.742 5.31925 10.7228 5.07591C10.7036 4.83256 10.7621 4.58941 10.8894 4.38242C11.0168 4.17543 11.2063 4.0156 11.43 3.92657C11.6358 3.86144 11.8507 3.83067 12.0662 3.83544H24.6413C24.8571 3.83215 25.0719 3.86439 25.2775 3.93091C25.5037 4.01828 25.6958 4.17809 25.8247 4.3862C25.9536 4.59431 26.0124 4.83941 25.9922 5.08447C25.9719 5.32953 25.8737 5.56123 25.7124 5.74456C25.5512 5.9279 25.3355 6.05291 25.0982 6.1007C24.8993 6.13471 24.6977 6.14924 24.4961 6.14409L18.326 6.13975Z" fill="#4D4041" stroke="#4D4041" stroke-width="0.463501" stroke-miterlimit="10"/>
<path d="M18.3643 22.2434C20.4993 22.2434 22.6001 22.2434 24.718 22.2434C24.8778 22.2224 25.0402 22.2363 25.1943 22.284C25.3484 22.3318 25.4908 22.4123 25.6119 22.5202C25.7331 22.6282 25.8303 22.7611 25.897 22.9101C25.9637 23.0591 25.9985 23.2209 25.999 23.3847C26.0088 23.6435 25.9286 23.8976 25.7724 24.1024C25.6162 24.3071 25.3941 24.4494 25.145 24.5043C24.9778 24.539 24.8075 24.5564 24.6369 24.5563C20.4608 24.5563 16.2848 24.5563 12.1088 24.5563C11.2761 24.5563 10.7851 24.1224 10.7552 23.4541C10.7253 22.7858 11.2249 22.2434 12.0362 22.2434C14.1242 22.239 16.2421 22.2434 18.3643 22.2434Z" fill="#4D4041" stroke="#4D4041" stroke-width="0.463501" stroke-miterlimit="10"/>
<path d="M18.3898 13.0477H24.7008C24.9949 13.0078 25.2927 13.087 25.5299 13.2682C25.7672 13.4493 25.9249 13.7179 25.9691 14.0161C26.0134 14.3143 25.9406 14.6183 25.7664 14.8625C25.5923 15.1066 25.3307 15.2715 25.0381 15.3216C24.9614 15.3281 24.8843 15.3281 24.8076 15.3216C20.5091 15.3216 16.2092 15.3216 11.908 15.3216C11.6268 15.3419 11.3486 15.2527 11.1297 15.0722C10.9109 14.8917 10.7678 14.6333 10.7294 14.3495C10.7021 14.1864 10.7108 14.0192 10.755 13.8599C10.7991 13.7006 10.8776 13.5533 10.9847 13.4287C11.0918 13.3041 11.2249 13.2052 11.3742 13.1393C11.5235 13.0734 11.6855 13.0421 11.8482 13.0477C12.9327 13.0477 14.0131 13.0477 15.0976 13.0477H18.3898Z" fill="#4D4041" stroke="#4D4041" stroke-width="0.463501" stroke-miterlimit="10"/>
<path d="M3.46845 13.8993L6.04414 11.1867C6.22326 10.9823 6.4127 10.7893 6.61154 10.6086C6.8152 10.4299 7.07428 10.347 7.33275 10.3779C7.59122 10.4088 7.8283 10.551 7.99271 10.7738C8.07811 10.8713 8.14465 10.987 8.18827 11.1139C8.2319 11.2407 8.2517 11.3761 8.24646 11.5117C8.24122 11.6473 8.21105 11.7803 8.1578 11.9026C8.10454 12.0249 8.02932 12.1339 7.93672 12.223C6.65261 13.5993 5.35978 14.9577 4.05825 16.2982C3.96755 16.4068 3.85675 16.4924 3.7334 16.5494C3.61005 16.6063 3.47705 16.6331 3.34348 16.628C3.2099 16.6229 3.07889 16.586 2.95938 16.5198C2.83987 16.4537 2.73467 16.3597 2.65095 16.2445C1.99396 15.5137 1.3407 14.7788 0.698647 14.0314C0.599857 13.9286 0.520404 13.8052 0.46485 13.6683C0.409296 13.5314 0.378734 13.3837 0.374919 13.2337C0.371104 13.0837 0.394111 12.9343 0.442618 12.7942C0.491126 12.6541 0.56418 12.5259 0.657586 12.4171C1.05327 11.9794 1.63187 12.029 2.10221 12.5203C2.57256 13.0116 2.99437 13.4245 3.46845 13.8993Z" fill="#4D4041" stroke="#4D4041" stroke-width="0.463501" stroke-miterlimit="10"/>
<path d="M3.49354 4.52568C4.46118 3.50242 5.46589 2.42965 6.48172 1.36101C6.64627 1.14833 6.8787 1.0152 7.12985 0.989794C7.38101 0.964384 7.63119 1.04868 7.82751 1.22485C7.94452 1.30835 8.04284 1.4205 8.11495 1.55274C8.18706 1.68499 8.23105 1.83383 8.24357 1.98789C8.25609 2.14195 8.23681 2.29716 8.18718 2.44166C8.13756 2.58616 8.05892 2.71612 7.95727 2.82163C6.66709 4.21622 5.36208 5.59157 4.04224 6.94765C3.95647 7.0444 3.85372 7.12046 3.7404 7.1711C3.62707 7.22174 3.5056 7.24587 3.38353 7.242C3.26146 7.23813 3.14141 7.20634 3.03086 7.1486C2.92031 7.09086 2.82162 7.00841 2.74094 6.90639C2.06619 6.15546 1.39885 5.40039 0.742642 4.62883C0.632769 4.53158 0.543061 4.40907 0.47965 4.26968C0.416239 4.1303 0.380621 3.97731 0.375231 3.82119C0.369841 3.66507 0.394805 3.5095 0.448418 3.3651C0.502031 3.22071 0.583028 3.09091 0.685872 2.98456C0.788715 2.87822 0.91098 2.79784 1.04431 2.74893C1.17763 2.70002 1.31888 2.68372 1.45839 2.70116C1.59789 2.7186 1.73237 2.76936 1.85263 2.84996C1.97288 2.93057 2.07608 3.03913 2.15517 3.16821C2.58152 3.60557 3.01899 4.04293 3.49354 4.52568Z" fill="#4D4041" stroke="#4D4041" stroke-width="0.463501" stroke-miterlimit="10"/>
<path d="M3.41745 23.3404C4.43743 22.2683 5.44246 21.2087 6.45497 20.1531C6.60313 19.9549 6.81006 19.821 7.03912 19.7749C7.26819 19.7289 7.50462 19.7738 7.70659 19.9016C7.84573 19.9743 7.96667 20.0835 8.0589 20.2195C8.15113 20.3556 8.21185 20.5144 8.23579 20.6822C8.25972 20.8501 8.24615 21.0218 8.19624 21.1826C8.14634 21.3433 8.06162 21.4881 7.94944 21.6045C6.66046 22.9858 5.33411 24.3464 4.03766 25.703C3.94791 25.8067 3.8391 25.8881 3.71851 25.9417C3.59792 25.9952 3.46836 26.0197 3.3385 26.0134C3.20864 26.0072 3.0815 25.9704 2.96559 25.9054C2.84969 25.8405 2.7477 25.749 2.66648 25.637C2.01638 24.9195 1.37251 24.1952 0.734873 23.4641C0.626992 23.3611 0.539416 23.2347 0.477569 23.0928C0.415722 22.951 0.38092 22.7966 0.375316 22.6393C0.369713 22.482 0.393427 22.3251 0.444991 22.1783C0.496556 22.0315 0.574873 21.898 0.675094 21.7859C1.07487 21.3736 1.68013 21.4396 2.14715 21.9632C2.53571 22.4003 2.92178 22.8401 3.30537 23.2826C3.34143 23.3048 3.37889 23.3241 3.41745 23.3404Z" fill="#4D4041" stroke="#4D4041" stroke-width="0.463501" stroke-miterlimit="10"/>
</svg>
