<svg width="36" height="36" viewBox="0 0 36 36" fill="none" xmlns="http://www.w3.org/2000/svg">
<mask id="path-1-outside-1_805_20991" maskUnits="userSpaceOnUse" x="0" y="0" width="36" height="36" fill="black">
<rect fill="white" width="36" height="36"/>
<path d="M34.997 34.2612C34.974 34.2817 34.9532 34.3045 34.9348 34.3293C34.6979 34.7999 34.3424 35.0307 33.9248 34.9834C33.708 34.9631 33.5031 34.8754 33.3389 34.7325C33.1747 34.5897 33.0595 34.3989 33.0096 34.1872C32.5475 32.7813 32.0765 31.3784 31.6086 29.9726C31.3686 29.2504 31.1169 28.5312 30.8858 27.8031C30.6654 27.0087 30.2248 26.2927 29.6148 25.7376C29.0048 25.1825 28.2502 24.811 27.4381 24.6658L26.4577 24.4586C26.4577 25.2015 26.4577 25.9059 26.4577 26.6103C26.4577 26.6725 26.5999 26.7554 26.6917 26.785C27.4219 27.0073 28.0765 27.4266 28.5835 27.9969C29.0904 28.5672 29.43 29.2662 29.5648 30.017C29.6321 30.4208 29.6609 30.8301 29.6507 31.2393C29.6507 32.1036 29.6507 32.9648 29.6507 33.8291C29.6507 34.6045 29.2568 34.9893 28.4659 34.9893H27.6691C27.5385 35.0007 27.4068 34.9864 27.2816 34.947C27.1565 34.9076 27.0404 34.844 26.9398 34.7597C26.8393 34.6755 26.7564 34.5723 26.6957 34.456C26.6351 34.3398 26.598 34.2127 26.5865 34.0821C26.5751 33.9515 26.5895 33.82 26.6289 33.6949C26.6683 33.5699 26.732 33.4538 26.8163 33.3534C26.9006 33.2529 27.0038 33.17 27.1202 33.1095C27.2365 33.0489 27.3637 33.0118 27.4944 33.0003C27.5374 32.993 27.5799 32.9831 27.6218 32.9708C27.6218 32.1657 27.6751 31.3666 27.6218 30.5763C27.567 30.0277 27.3074 29.5198 26.8947 29.1537C26.4819 28.7877 25.9464 28.5905 25.3947 28.6013C24.843 28.6121 24.3156 28.8302 23.9176 29.2122C23.5196 29.5941 23.2801 30.1118 23.2469 30.6622C23.1995 31.4228 23.2469 32.1864 23.2469 32.9648C23.3684 32.9944 23.4869 33.0151 23.5994 33.0477C23.8227 33.1125 24.0161 33.2539 24.1455 33.447C24.2749 33.6402 24.332 33.8726 24.3069 34.1037C24.2818 34.3347 24.1761 34.5495 24.0082 34.7104C23.8404 34.8713 23.6212 34.9679 23.3891 34.9834C22.9807 35.0056 22.5713 35.0056 22.1629 34.9834C21.9352 34.9837 21.7161 34.8967 21.5507 34.7402C21.3854 34.5838 21.2864 34.37 21.2743 34.1428C21.2743 32.7399 21.1854 31.3222 21.3631 29.94C21.5675 28.3388 22.6753 27.3621 24.1592 26.8205C24.2541 26.8025 24.3381 26.7481 24.3935 26.6691C24.4488 26.59 24.471 26.4925 24.4554 26.3972C24.4436 25.7126 24.4436 25.022 24.4554 24.3254C24.4554 24.0946 24.4139 23.9732 24.1592 23.92C23.4217 23.7779 22.6782 23.6062 21.9585 23.4316C21.8724 23.3998 21.7773 23.403 21.6936 23.4407C21.6099 23.4783 21.5444 23.5474 21.5112 23.6329C20.6611 25.0683 19.7992 26.4979 18.9373 27.9274C18.4071 28.8153 17.5629 28.8153 17.0357 27.9274C16.1738 26.4979 15.3089 25.0683 14.4588 23.6299C14.4188 23.5471 14.349 23.4824 14.2633 23.4489C14.1776 23.4154 14.0823 23.4156 13.9967 23.4494C13.2562 23.6299 12.5157 23.7986 11.7634 23.9496C11.565 23.991 11.5176 24.0739 11.5176 24.2455C11.5176 25.7047 11.5176 27.1638 11.5176 28.6259C11.5176 28.8568 11.639 28.9219 11.8138 28.9959C12.4665 29.2909 12.9984 29.8004 13.3208 30.4397C13.6432 31.0789 13.7367 31.8093 13.5857 32.509C13.4347 33.2088 13.0483 33.8357 12.4909 34.2854C11.9335 34.7351 11.2387 34.9804 10.5224 34.9804C9.80596 34.9804 9.1112 34.7351 8.55379 34.2854C7.99639 33.8357 7.61001 33.2088 7.459 32.509C7.308 31.8093 7.40149 31.0789 7.72391 30.4397C8.04633 29.8004 8.5782 29.2909 9.23093 28.9959C9.33048 28.9622 9.41486 28.8944 9.46909 28.8044C9.52332 28.7145 9.54389 28.6082 9.52713 28.5046C9.52713 27.2763 9.52713 26.048 9.52713 24.8197V24.4646C7.51892 24.6984 5.83653 25.4886 5.08419 27.7765C4.39109 29.9193 3.66541 32.0532 2.94861 34.1902C2.89846 34.4247 2.76684 34.6338 2.57709 34.7807C2.38733 34.9275 2.1517 35.0024 1.91193 34.9922C1.70143 34.9814 1.50035 34.9016 1.33974 34.7652C1.17914 34.6288 1.06795 34.4434 1.02334 34.2375C0.984221 34.0408 0.994396 33.8374 1.05296 33.6456C1.80826 31.3577 2.53394 29.058 3.34848 26.7968C4.16302 24.5356 5.82172 23.2274 8.1439 22.7124C9.92107 22.3188 11.6982 21.9162 13.4754 21.5285C13.7302 21.4753 13.7894 21.3717 13.7716 21.1319C13.7716 20.4926 13.7716 19.8504 13.7716 19.2081C13.7802 19.1281 13.7652 19.0473 13.7283 18.9758C13.6915 18.9043 13.6345 18.8451 13.5643 18.8056C10.8728 17.0673 9.52417 14.587 9.51824 11.3649C9.51824 10.0271 9.51824 8.70116 9.51824 7.34857C9.53216 6.30637 9.90923 5.30162 10.5846 4.50725C11.3497 3.53491 12.3044 2.72794 13.3909 2.13524C14.4775 1.54254 15.6731 1.17647 16.9054 1.05919C16.9789 1.04538 17.0513 1.02558 17.1216 1H18.8514C18.9107 1.02453 18.9722 1.04336 19.035 1.05623C20.2676 1.16998 21.4641 1.53268 22.5522 2.12233C23.6402 2.71198 24.5971 3.51631 25.3647 4.48653C26.0414 5.2736 26.4207 6.27262 26.437 7.3101C26.4488 8.9478 26.4429 10.5845 26.4192 12.2202C26.4047 12.6197 26.3482 13.0165 26.2504 13.4041C26.013 14.5208 25.5488 15.5769 24.8865 16.507C24.2242 17.4371 23.3778 18.2215 22.3998 18.8115C22.3277 18.848 22.2682 18.9053 22.2291 18.9761C22.19 19.0468 22.1731 19.1277 22.1806 19.2081C22.1806 19.8622 22.1806 20.5133 22.1806 21.1645C22.1806 21.3983 22.2428 21.4841 22.4768 21.5344C24.3577 21.9399 26.2385 22.3365 28.1046 22.7894C29.1346 23.0064 30.091 23.4856 30.8813 24.1804C31.6717 24.8752 32.269 25.7622 32.6156 26.7554C33.1754 28.2352 33.6345 29.7684 34.144 31.2748C34.4224 32.0976 34.7157 32.9145 35 33.7344L34.997 34.2612ZM17.9776 18.0982C18.4071 18.042 18.8366 18.0094 19.2601 17.9325C20.7226 17.6385 22.0385 16.8486 22.9852 15.6966C23.9319 14.5446 24.4513 13.1012 24.4554 11.6105C24.4554 11.5188 24.4021 11.3649 24.3399 11.3471C23.475 11.0778 22.8826 10.4563 22.2902 9.83472C22.2244 9.74961 22.1303 9.69088 22.0249 9.66916C21.9194 9.64744 21.8097 9.66418 21.7156 9.71634C19.356 10.6197 16.7478 10.6333 14.3788 9.75481C14.2478 9.68283 14.0948 9.66146 13.949 9.69474C13.8032 9.72802 13.6748 9.81365 13.588 9.93536C13.0805 10.5698 12.4158 11.0606 11.6597 11.359C11.5857 11.3856 11.5205 11.5662 11.5235 11.6727C11.5459 13.374 12.2338 14.999 13.44 16.1998C14.6462 17.4007 16.2749 18.0821 17.9776 18.0982ZM24.3636 9.12736L24.4702 9.07408C24.4702 8.52357 24.4702 7.97307 24.4702 7.42256C24.4609 6.80881 24.2378 6.2175 23.8393 5.75033C23.2236 4.9604 22.4478 4.30945 21.5626 3.84018C20.6775 3.37092 19.7031 3.09393 18.7033 3.0274C17.4979 2.89543 16.2785 3.06213 15.1528 3.51276C14.0272 3.9634 13.0299 4.68411 12.2492 5.61122C11.3221 6.65896 11.5353 7.8754 11.562 9.09184C12.0241 8.6834 12.4506 8.25128 12.8771 7.82508C13.3599 7.34561 13.6857 7.28938 14.3077 7.57351C15.4552 8.12075 16.7106 8.40475 17.982 8.40475C19.2535 8.40475 20.5089 8.12075 21.6564 7.57351C22.2902 7.27754 22.5983 7.33081 23.09 7.82212C23.5194 8.24832 23.9311 8.69228 24.3636 9.12736ZM15.7739 19.7675C15.7739 20.4394 15.7739 21.0786 15.7739 21.715C15.7807 21.8989 15.8314 22.0786 15.922 22.2389C16.5351 23.2866 17.166 24.3106 17.791 25.3643C17.8414 25.4472 17.8976 25.5241 17.9835 25.6603C18.0008 25.6196 18.0206 25.5801 18.0428 25.5419L20.0895 22.1353C20.1271 22.0812 20.1524 22.0196 20.1635 21.9547C20.1635 21.2385 20.1635 20.5252 20.1635 19.7764C18.7241 20.1523 17.2118 20.1492 15.7739 19.7675ZM10.4987 32.9974C10.7226 32.9968 10.9414 32.93 11.1275 32.8053C11.3135 32.6807 11.4585 32.5038 11.544 32.2969C11.6296 32.0901 11.652 31.8626 11.6084 31.643C11.5648 31.4235 11.4571 31.2218 11.2989 31.0633C11.1407 30.9048 10.9391 30.7967 10.7195 30.7525C10.4999 30.7084 10.2722 30.7302 10.065 30.8151C9.85775 30.9001 9.68035 31.0445 9.55511 31.2301C9.42988 31.4156 9.36243 31.6341 9.36126 31.8579C9.36361 32.1609 9.48572 32.4507 9.70099 32.6642C9.91626 32.8776 10.2072 32.9974 10.5105 32.9974H10.4987Z"/>
</mask>
<path d="M34.997 34.2612C34.974 34.2817 34.9532 34.3045 34.9348 34.3293C34.6979 34.7999 34.3424 35.0307 33.9248 34.9834C33.708 34.9631 33.5031 34.8754 33.3389 34.7325C33.1747 34.5897 33.0595 34.3989 33.0096 34.1872C32.5475 32.7813 32.0765 31.3784 31.6086 29.9726C31.3686 29.2504 31.1169 28.5312 30.8858 27.8031C30.6654 27.0087 30.2248 26.2927 29.6148 25.7376C29.0048 25.1825 28.2502 24.811 27.4381 24.6658L26.4577 24.4586C26.4577 25.2015 26.4577 25.9059 26.4577 26.6103C26.4577 26.6725 26.5999 26.7554 26.6917 26.785C27.4219 27.0073 28.0765 27.4266 28.5835 27.9969C29.0904 28.5672 29.43 29.2662 29.5648 30.017C29.6321 30.4208 29.6609 30.8301 29.6507 31.2393C29.6507 32.1036 29.6507 32.9648 29.6507 33.8291C29.6507 34.6045 29.2568 34.9893 28.4659 34.9893H27.6691C27.5385 35.0007 27.4068 34.9864 27.2816 34.947C27.1565 34.9076 27.0404 34.844 26.9398 34.7597C26.8393 34.6755 26.7564 34.5723 26.6957 34.456C26.6351 34.3398 26.598 34.2127 26.5865 34.0821C26.5751 33.9515 26.5895 33.82 26.6289 33.6949C26.6683 33.5699 26.732 33.4538 26.8163 33.3534C26.9006 33.2529 27.0038 33.17 27.1202 33.1095C27.2365 33.0489 27.3637 33.0118 27.4944 33.0003C27.5374 32.993 27.5799 32.9831 27.6218 32.9708C27.6218 32.1657 27.6751 31.3666 27.6218 30.5763C27.567 30.0277 27.3074 29.5198 26.8947 29.1537C26.4819 28.7877 25.9464 28.5905 25.3947 28.6013C24.843 28.6121 24.3156 28.8302 23.9176 29.2122C23.5196 29.5941 23.2801 30.1118 23.2469 30.6622C23.1995 31.4228 23.2469 32.1864 23.2469 32.9648C23.3684 32.9944 23.4869 33.0151 23.5994 33.0477C23.8227 33.1125 24.0161 33.2539 24.1455 33.447C24.2749 33.6402 24.332 33.8726 24.3069 34.1037C24.2818 34.3347 24.1761 34.5495 24.0082 34.7104C23.8404 34.8713 23.6212 34.9679 23.3891 34.9834C22.9807 35.0056 22.5713 35.0056 22.1629 34.9834C21.9352 34.9837 21.7161 34.8967 21.5507 34.7402C21.3854 34.5838 21.2864 34.37 21.2743 34.1428C21.2743 32.7399 21.1854 31.3222 21.3631 29.94C21.5675 28.3388 22.6753 27.3621 24.1592 26.8205C24.2541 26.8025 24.3381 26.7481 24.3935 26.6691C24.4488 26.59 24.471 26.4925 24.4554 26.3972C24.4436 25.7126 24.4436 25.022 24.4554 24.3254C24.4554 24.0946 24.4139 23.9732 24.1592 23.92C23.4217 23.7779 22.6782 23.6062 21.9585 23.4316C21.8724 23.3998 21.7773 23.403 21.6936 23.4407C21.6099 23.4783 21.5444 23.5474 21.5112 23.6329C20.6611 25.0683 19.7992 26.4979 18.9373 27.9274C18.4071 28.8153 17.5629 28.8153 17.0357 27.9274C16.1738 26.4979 15.3089 25.0683 14.4588 23.6299C14.4188 23.5471 14.349 23.4824 14.2633 23.4489C14.1776 23.4154 14.0823 23.4156 13.9967 23.4494C13.2562 23.6299 12.5157 23.7986 11.7634 23.9496C11.565 23.991 11.5176 24.0739 11.5176 24.2455C11.5176 25.7047 11.5176 27.1638 11.5176 28.6259C11.5176 28.8568 11.639 28.9219 11.8138 28.9959C12.4665 29.2909 12.9984 29.8004 13.3208 30.4397C13.6432 31.0789 13.7367 31.8093 13.5857 32.509C13.4347 33.2088 13.0483 33.8357 12.4909 34.2854C11.9335 34.7351 11.2387 34.9804 10.5224 34.9804C9.80596 34.9804 9.1112 34.7351 8.55379 34.2854C7.99639 33.8357 7.61001 33.2088 7.459 32.509C7.308 31.8093 7.40149 31.0789 7.72391 30.4397C8.04633 29.8004 8.5782 29.2909 9.23093 28.9959C9.33048 28.9622 9.41486 28.8944 9.46909 28.8044C9.52332 28.7145 9.54389 28.6082 9.52713 28.5046C9.52713 27.2763 9.52713 26.048 9.52713 24.8197V24.4646C7.51892 24.6984 5.83653 25.4886 5.08419 27.7765C4.39109 29.9193 3.66541 32.0532 2.94861 34.1902C2.89846 34.4247 2.76684 34.6338 2.57709 34.7807C2.38733 34.9275 2.1517 35.0024 1.91193 34.9922C1.70143 34.9814 1.50035 34.9016 1.33974 34.7652C1.17914 34.6288 1.06795 34.4434 1.02334 34.2375C0.984221 34.0408 0.994396 33.8374 1.05296 33.6456C1.80826 31.3577 2.53394 29.058 3.34848 26.7968C4.16302 24.5356 5.82172 23.2274 8.1439 22.7124C9.92107 22.3188 11.6982 21.9162 13.4754 21.5285C13.7302 21.4753 13.7894 21.3717 13.7716 21.1319C13.7716 20.4926 13.7716 19.8504 13.7716 19.2081C13.7802 19.1281 13.7652 19.0473 13.7283 18.9758C13.6915 18.9043 13.6345 18.8451 13.5643 18.8056C10.8728 17.0673 9.52417 14.587 9.51824 11.3649C9.51824 10.0271 9.51824 8.70116 9.51824 7.34857C9.53216 6.30637 9.90923 5.30162 10.5846 4.50725C11.3497 3.53491 12.3044 2.72794 13.3909 2.13524C14.4775 1.54254 15.6731 1.17647 16.9054 1.05919C16.9789 1.04538 17.0513 1.02558 17.1216 1H18.8514C18.9107 1.02453 18.9722 1.04336 19.035 1.05623C20.2676 1.16998 21.4641 1.53268 22.5522 2.12233C23.6402 2.71198 24.5971 3.51631 25.3647 4.48653C26.0414 5.2736 26.4207 6.27262 26.437 7.3101C26.4488 8.9478 26.4429 10.5845 26.4192 12.2202C26.4047 12.6197 26.3482 13.0165 26.2504 13.4041C26.013 14.5208 25.5488 15.5769 24.8865 16.507C24.2242 17.4371 23.3778 18.2215 22.3998 18.8115C22.3277 18.848 22.2682 18.9053 22.2291 18.9761C22.19 19.0468 22.1731 19.1277 22.1806 19.2081C22.1806 19.8622 22.1806 20.5133 22.1806 21.1645C22.1806 21.3983 22.2428 21.4841 22.4768 21.5344C24.3577 21.9399 26.2385 22.3365 28.1046 22.7894C29.1346 23.0064 30.091 23.4856 30.8813 24.1804C31.6717 24.8752 32.269 25.7622 32.6156 26.7554C33.1754 28.2352 33.6345 29.7684 34.144 31.2748C34.4224 32.0976 34.7157 32.9145 35 33.7344L34.997 34.2612ZM17.9776 18.0982C18.4071 18.042 18.8366 18.0094 19.2601 17.9325C20.7226 17.6385 22.0385 16.8486 22.9852 15.6966C23.9319 14.5446 24.4513 13.1012 24.4554 11.6105C24.4554 11.5188 24.4021 11.3649 24.3399 11.3471C23.475 11.0778 22.8826 10.4563 22.2902 9.83472C22.2244 9.74961 22.1303 9.69088 22.0249 9.66916C21.9194 9.64744 21.8097 9.66418 21.7156 9.71634C19.356 10.6197 16.7478 10.6333 14.3788 9.75481C14.2478 9.68283 14.0948 9.66146 13.949 9.69474C13.8032 9.72802 13.6748 9.81365 13.588 9.93536C13.0805 10.5698 12.4158 11.0606 11.6597 11.359C11.5857 11.3856 11.5205 11.5662 11.5235 11.6727C11.5459 13.374 12.2338 14.999 13.44 16.1998C14.6462 17.4007 16.2749 18.0821 17.9776 18.0982ZM24.3636 9.12736L24.4702 9.07408C24.4702 8.52357 24.4702 7.97307 24.4702 7.42256C24.4609 6.80881 24.2378 6.2175 23.8393 5.75033C23.2236 4.9604 22.4478 4.30945 21.5626 3.84018C20.6775 3.37092 19.7031 3.09393 18.7033 3.0274C17.4979 2.89543 16.2785 3.06213 15.1528 3.51276C14.0272 3.9634 13.0299 4.68411 12.2492 5.61122C11.3221 6.65896 11.5353 7.8754 11.562 9.09184C12.0241 8.6834 12.4506 8.25128 12.8771 7.82508C13.3599 7.34561 13.6857 7.28938 14.3077 7.57351C15.4552 8.12075 16.7106 8.40475 17.982 8.40475C19.2535 8.40475 20.5089 8.12075 21.6564 7.57351C22.2902 7.27754 22.5983 7.33081 23.09 7.82212C23.5194 8.24832 23.9311 8.69228 24.3636 9.12736ZM15.7739 19.7675C15.7739 20.4394 15.7739 21.0786 15.7739 21.715C15.7807 21.8989 15.8314 22.0786 15.922 22.2389C16.5351 23.2866 17.166 24.3106 17.791 25.3643C17.8414 25.4472 17.8976 25.5241 17.9835 25.6603C18.0008 25.6196 18.0206 25.5801 18.0428 25.5419L20.0895 22.1353C20.1271 22.0812 20.1524 22.0196 20.1635 21.9547C20.1635 21.2385 20.1635 20.5252 20.1635 19.7764C18.7241 20.1523 17.2118 20.1492 15.7739 19.7675ZM10.4987 32.9974C10.7226 32.9968 10.9414 32.93 11.1275 32.8053C11.3135 32.6807 11.4585 32.5038 11.544 32.2969C11.6296 32.0901 11.652 31.8626 11.6084 31.643C11.5648 31.4235 11.4571 31.2218 11.2989 31.0633C11.1407 30.9048 10.9391 30.7967 10.7195 30.7525C10.4999 30.7084 10.2722 30.7302 10.065 30.8151C9.85775 30.9001 9.68035 31.0445 9.55511 31.2301C9.42988 31.4156 9.36243 31.6341 9.36126 31.8579C9.36361 32.1609 9.48572 32.4507 9.70099 32.6642C9.91626 32.8776 10.2072 32.9974 10.5105 32.9974H10.4987Z" fill="#4D4041"/>
<path d="M34.997 34.2612C34.974 34.2817 34.9532 34.3045 34.9348 34.3293C34.6979 34.7999 34.3424 35.0307 33.9248 34.9834C33.708 34.9631 33.5031 34.8754 33.3389 34.7325C33.1747 34.5897 33.0595 34.3989 33.0096 34.1872C32.5475 32.7813 32.0765 31.3784 31.6086 29.9726C31.3686 29.2504 31.1169 28.5312 30.8858 27.8031C30.6654 27.0087 30.2248 26.2927 29.6148 25.7376C29.0048 25.1825 28.2502 24.811 27.4381 24.6658L26.4577 24.4586C26.4577 25.2015 26.4577 25.9059 26.4577 26.6103C26.4577 26.6725 26.5999 26.7554 26.6917 26.785C27.4219 27.0073 28.0765 27.4266 28.5835 27.9969C29.0904 28.5672 29.43 29.2662 29.5648 30.017C29.6321 30.4208 29.6609 30.8301 29.6507 31.2393C29.6507 32.1036 29.6507 32.9648 29.6507 33.8291C29.6507 34.6045 29.2568 34.9893 28.4659 34.9893H27.6691C27.5385 35.0007 27.4068 34.9864 27.2816 34.947C27.1565 34.9076 27.0404 34.844 26.9398 34.7597C26.8393 34.6755 26.7564 34.5723 26.6957 34.456C26.6351 34.3398 26.598 34.2127 26.5865 34.0821C26.5751 33.9515 26.5895 33.82 26.6289 33.6949C26.6683 33.5699 26.732 33.4538 26.8163 33.3534C26.9006 33.2529 27.0038 33.17 27.1202 33.1095C27.2365 33.0489 27.3637 33.0118 27.4944 33.0003C27.5374 32.993 27.5799 32.9831 27.6218 32.9708C27.6218 32.1657 27.6751 31.3666 27.6218 30.5763C27.567 30.0277 27.3074 29.5198 26.8947 29.1537C26.4819 28.7877 25.9464 28.5905 25.3947 28.6013C24.843 28.6121 24.3156 28.8302 23.9176 29.2122C23.5196 29.5941 23.2801 30.1118 23.2469 30.6622C23.1995 31.4228 23.2469 32.1864 23.2469 32.9648C23.3684 32.9944 23.4869 33.0151 23.5994 33.0477C23.8227 33.1125 24.0161 33.2539 24.1455 33.447C24.2749 33.6402 24.332 33.8726 24.3069 34.1037C24.2818 34.3347 24.1761 34.5495 24.0082 34.7104C23.8404 34.8713 23.6212 34.9679 23.3891 34.9834C22.9807 35.0056 22.5713 35.0056 22.1629 34.9834C21.9352 34.9837 21.7161 34.8967 21.5507 34.7402C21.3854 34.5838 21.2864 34.37 21.2743 34.1428C21.2743 32.7399 21.1854 31.3222 21.3631 29.94C21.5675 28.3388 22.6753 27.3621 24.1592 26.8205C24.2541 26.8025 24.3381 26.7481 24.3935 26.6691C24.4488 26.59 24.471 26.4925 24.4554 26.3972C24.4436 25.7126 24.4436 25.022 24.4554 24.3254C24.4554 24.0946 24.4139 23.9732 24.1592 23.92C23.4217 23.7779 22.6782 23.6062 21.9585 23.4316C21.8724 23.3998 21.7773 23.403 21.6936 23.4407C21.6099 23.4783 21.5444 23.5474 21.5112 23.6329C20.6611 25.0683 19.7992 26.4979 18.9373 27.9274C18.4071 28.8153 17.5629 28.8153 17.0357 27.9274C16.1738 26.4979 15.3089 25.0683 14.4588 23.6299C14.4188 23.5471 14.349 23.4824 14.2633 23.4489C14.1776 23.4154 14.0823 23.4156 13.9967 23.4494C13.2562 23.6299 12.5157 23.7986 11.7634 23.9496C11.565 23.991 11.5176 24.0739 11.5176 24.2455C11.5176 25.7047 11.5176 27.1638 11.5176 28.6259C11.5176 28.8568 11.639 28.9219 11.8138 28.9959C12.4665 29.2909 12.9984 29.8004 13.3208 30.4397C13.6432 31.0789 13.7367 31.8093 13.5857 32.509C13.4347 33.2088 13.0483 33.8357 12.4909 34.2854C11.9335 34.7351 11.2387 34.9804 10.5224 34.9804C9.80596 34.9804 9.1112 34.7351 8.55379 34.2854C7.99639 33.8357 7.61001 33.2088 7.459 32.509C7.308 31.8093 7.40149 31.0789 7.72391 30.4397C8.04633 29.8004 8.5782 29.2909 9.23093 28.9959C9.33048 28.9622 9.41486 28.8944 9.46909 28.8044C9.52332 28.7145 9.54389 28.6082 9.52713 28.5046C9.52713 27.2763 9.52713 26.048 9.52713 24.8197V24.4646C7.51892 24.6984 5.83653 25.4886 5.08419 27.7765C4.39109 29.9193 3.66541 32.0532 2.94861 34.1902C2.89846 34.4247 2.76684 34.6338 2.57709 34.7807C2.38733 34.9275 2.1517 35.0024 1.91193 34.9922C1.70143 34.9814 1.50035 34.9016 1.33974 34.7652C1.17914 34.6288 1.06795 34.4434 1.02334 34.2375C0.984221 34.0408 0.994396 33.8374 1.05296 33.6456C1.80826 31.3577 2.53394 29.058 3.34848 26.7968C4.16302 24.5356 5.82172 23.2274 8.1439 22.7124C9.92107 22.3188 11.6982 21.9162 13.4754 21.5285C13.7302 21.4753 13.7894 21.3717 13.7716 21.1319C13.7716 20.4926 13.7716 19.8504 13.7716 19.2081C13.7802 19.1281 13.7652 19.0473 13.7283 18.9758C13.6915 18.9043 13.6345 18.8451 13.5643 18.8056C10.8728 17.0673 9.52417 14.587 9.51824 11.3649C9.51824 10.0271 9.51824 8.70116 9.51824 7.34857C9.53216 6.30637 9.90923 5.30162 10.5846 4.50725C11.3497 3.53491 12.3044 2.72794 13.3909 2.13524C14.4775 1.54254 15.6731 1.17647 16.9054 1.05919C16.9789 1.04538 17.0513 1.02558 17.1216 1H18.8514C18.9107 1.02453 18.9722 1.04336 19.035 1.05623C20.2676 1.16998 21.4641 1.53268 22.5522 2.12233C23.6402 2.71198 24.5971 3.51631 25.3647 4.48653C26.0414 5.2736 26.4207 6.27262 26.437 7.3101C26.4488 8.9478 26.4429 10.5845 26.4192 12.2202C26.4047 12.6197 26.3482 13.0165 26.2504 13.4041C26.013 14.5208 25.5488 15.5769 24.8865 16.507C24.2242 17.4371 23.3778 18.2215 22.3998 18.8115C22.3277 18.848 22.2682 18.9053 22.2291 18.9761C22.19 19.0468 22.1731 19.1277 22.1806 19.2081C22.1806 19.8622 22.1806 20.5133 22.1806 21.1645C22.1806 21.3983 22.2428 21.4841 22.4768 21.5344C24.3577 21.9399 26.2385 22.3365 28.1046 22.7894C29.1346 23.0064 30.091 23.4856 30.8813 24.1804C31.6717 24.8752 32.269 25.7622 32.6156 26.7554C33.1754 28.2352 33.6345 29.7684 34.144 31.2748C34.4224 32.0976 34.7157 32.9145 35 33.7344L34.997 34.2612ZM17.9776 18.0982C18.4071 18.042 18.8366 18.0094 19.2601 17.9325C20.7226 17.6385 22.0385 16.8486 22.9852 15.6966C23.9319 14.5446 24.4513 13.1012 24.4554 11.6105C24.4554 11.5188 24.4021 11.3649 24.3399 11.3471C23.475 11.0778 22.8826 10.4563 22.2902 9.83472C22.2244 9.74961 22.1303 9.69088 22.0249 9.66916C21.9194 9.64744 21.8097 9.66418 21.7156 9.71634C19.356 10.6197 16.7478 10.6333 14.3788 9.75481C14.2478 9.68283 14.0948 9.66146 13.949 9.69474C13.8032 9.72802 13.6748 9.81365 13.588 9.93536C13.0805 10.5698 12.4158 11.0606 11.6597 11.359C11.5857 11.3856 11.5205 11.5662 11.5235 11.6727C11.5459 13.374 12.2338 14.999 13.44 16.1998C14.6462 17.4007 16.2749 18.0821 17.9776 18.0982ZM24.3636 9.12736L24.4702 9.07408C24.4702 8.52357 24.4702 7.97307 24.4702 7.42256C24.4609 6.80881 24.2378 6.2175 23.8393 5.75033C23.2236 4.9604 22.4478 4.30945 21.5626 3.84018C20.6775 3.37092 19.7031 3.09393 18.7033 3.0274C17.4979 2.89543 16.2785 3.06213 15.1528 3.51276C14.0272 3.9634 13.0299 4.68411 12.2492 5.61122C11.3221 6.65896 11.5353 7.8754 11.562 9.09184C12.0241 8.6834 12.4506 8.25128 12.8771 7.82508C13.3599 7.34561 13.6857 7.28938 14.3077 7.57351C15.4552 8.12075 16.7106 8.40475 17.982 8.40475C19.2535 8.40475 20.5089 8.12075 21.6564 7.57351C22.2902 7.27754 22.5983 7.33081 23.09 7.82212C23.5194 8.24832 23.9311 8.69228 24.3636 9.12736ZM15.7739 19.7675C15.7739 20.4394 15.7739 21.0786 15.7739 21.715C15.7807 21.8989 15.8314 22.0786 15.922 22.2389C16.5351 23.2866 17.166 24.3106 17.791 25.3643C17.8414 25.4472 17.8976 25.5241 17.9835 25.6603C18.0008 25.6196 18.0206 25.5801 18.0428 25.5419L20.0895 22.1353C20.1271 22.0812 20.1524 22.0196 20.1635 21.9547C20.1635 21.2385 20.1635 20.5252 20.1635 19.7764C18.7241 20.1523 17.2118 20.1492 15.7739 19.7675ZM10.4987 32.9974C10.7226 32.9968 10.9414 32.93 11.1275 32.8053C11.3135 32.6807 11.4585 32.5038 11.544 32.2969C11.6296 32.0901 11.652 31.8626 11.6084 31.643C11.5648 31.4235 11.4571 31.2218 11.2989 31.0633C11.1407 30.9048 10.9391 30.7967 10.7195 30.7525C10.4999 30.7084 10.2722 30.7302 10.065 30.8151C9.85775 30.9001 9.68035 31.0445 9.55511 31.2301C9.42988 31.4156 9.36243 31.6341 9.36126 31.8579C9.36361 32.1609 9.48572 32.4507 9.70099 32.6642C9.91626 32.8776 10.2072 32.9974 10.5105 32.9974H10.4987Z" stroke="#4D4041" stroke-width="0.4" mask="url(#path-1-outside-1_805_20991)"/>
</svg>
