<svg width="68" height="12" viewBox="0 0 68 12" fill="none" xmlns="http://www.w3.org/2000/svg">
<path d="M6.41236 1.4222L7.55493 3.49648C7.69775 3.74342 7.93579 3.89159 8.17383 3.99036L10.4114 4.48424C10.7922 4.58301 10.935 5.0275 10.6494 5.32383L9.12597 7.1018C8.93554 7.29935 8.84033 7.59567 8.88793 7.892L9.12597 10.2626C9.17358 10.6577 8.79272 10.9047 8.45947 10.7565L6.36476 9.76873C6.12672 9.66996 5.84108 9.66996 5.60304 9.76873L3.50833 10.7565C3.17508 10.9047 2.79422 10.6083 2.84183 10.2626L3.07986 7.892C3.12747 7.59567 3.03225 7.34873 2.84183 7.1018L1.3184 5.32383C1.08036 5.0275 1.22318 4.58301 1.55643 4.48424L3.79397 3.99036C4.07961 3.94097 4.27004 3.74342 4.41286 3.49648L5.55543 1.4222C5.74586 1.12587 6.22193 1.12587 6.41236 1.4222Z" fill="#FFAB36"/>
<path d="M20.4124 1.4222L21.5549 3.49648C21.6978 3.74342 21.9358 3.89159 22.1738 3.99036L24.4114 4.48424C24.7922 4.58301 24.935 5.0275 24.6494 5.32383L23.126 7.1018C22.9355 7.29935 22.8403 7.59567 22.8879 7.892L23.126 10.2626C23.1736 10.6577 22.7927 10.9047 22.4595 10.7565L20.3648 9.76873C20.1267 9.66996 19.8411 9.66996 19.603 9.76873L17.5083 10.7565C17.1751 10.9047 16.7942 10.6083 16.8418 10.2626L17.0799 7.892C17.1275 7.59567 17.0323 7.34873 16.8418 7.1018L15.3184 5.32383C15.0804 5.0275 15.2232 4.58301 15.5564 4.48424L17.794 3.99036C18.0796 3.94097 18.27 3.74342 18.4129 3.49648L19.5554 1.4222C19.7459 1.12587 20.2219 1.12587 20.4124 1.4222Z" fill="#FFAB36"/>
<path d="M34.4124 1.4222L35.5549 3.49648C35.6978 3.74342 35.9358 3.89159 36.1738 3.99036L38.4114 4.48424C38.7922 4.58301 38.935 5.0275 38.6494 5.32383L37.126 7.1018C36.9355 7.29935 36.8403 7.59567 36.8879 7.892L37.126 10.2626C37.1736 10.6577 36.7927 10.9047 36.4595 10.7565L34.3648 9.76873C34.1267 9.66996 33.8411 9.66996 33.603 9.76873L31.5083 10.7565C31.1751 10.9047 30.7942 10.6083 30.8418 10.2626L31.0799 7.892C31.1275 7.59567 31.0323 7.34873 30.8418 7.1018L29.3184 5.32383C29.0804 5.0275 29.2232 4.58301 29.5564 4.48424L31.794 3.99036C32.0796 3.94097 32.27 3.74342 32.4129 3.49648L33.5554 1.4222C33.7459 1.12587 34.2219 1.12587 34.4124 1.4222Z" fill="#FFAB36"/>
<path d="M48.4124 1.4222L49.5549 3.49648C49.6978 3.74342 49.9358 3.89159 50.1738 3.99036L52.4114 4.48424C52.7922 4.58301 52.935 5.0275 52.6494 5.32383L51.126 7.1018C50.9355 7.29935 50.8403 7.59567 50.8879 7.892L51.126 10.2626C51.1736 10.6577 50.7927 10.9047 50.4595 10.7565L48.3648 9.76873C48.1267 9.66996 47.8411 9.66996 47.603 9.76873L45.5083 10.7565C45.1751 10.9047 44.7942 10.6083 44.8418 10.2626L45.0799 7.892C45.1275 7.59567 45.0323 7.34873 44.8418 7.1018L43.3184 5.32383C43.0804 5.0275 43.2232 4.58301 43.5564 4.48424L45.794 3.99036C46.0796 3.94097 46.27 3.74342 46.4129 3.49648L47.5554 1.4222C47.7459 1.12587 48.2219 1.12587 48.4124 1.4222Z" fill="#FFAB36"/>
<path d="M62.4124 1.4222L63.5549 3.49648C63.6978 3.74342 63.9358 3.89159 64.1738 3.99036L66.4114 4.48424C66.7922 4.58301 66.935 5.0275 66.6494 5.32383L65.126 7.1018C64.9355 7.29935 64.8403 7.59567 64.8879 7.892L65.126 10.2626C65.1736 10.6577 64.7927 10.9047 64.4595 10.7565L62.3648 9.76873C62.1267 9.66996 61.8411 9.66996 61.603 9.76873L59.5083 10.7565C59.1751 10.9047 58.7942 10.6083 58.8418 10.2626L59.0799 7.892C59.1275 7.59567 59.0323 7.34873 58.8418 7.1018L57.3184 5.32383C57.0804 5.0275 57.2232 4.58301 57.5564 4.48424L59.794 3.99036C60.0796 3.94097 60.27 3.74342 60.4129 3.49648L61.5554 1.4222C61.7459 1.12587 62.2219 1.12587 62.4124 1.4222Z" fill="#FFAB36"/>
</svg>
