<svg width="13" height="13" viewBox="0 0 13 13" fill="none" xmlns="http://www.w3.org/2000/svg">
<path d="M6.5 0.25C4.89774 0.25457 3.35843 0.874321 2.2 1.98125V0.875C2.2 0.70924 2.13415 0.550268 2.01694 0.433058C1.89973 0.315848 1.74076 0.25 1.575 0.25C1.40924 0.25 1.25027 0.315848 1.13306 0.433058C1.01585 0.550268 0.95 0.70924 0.95 0.875V3.6875C0.95 3.85326 1.01585 4.01223 1.13306 4.12944C1.25027 4.24665 1.40924 4.3125 1.575 4.3125H4.3875C4.55326 4.3125 4.71223 4.24665 4.82944 4.12944C4.94665 4.01223 5.0125 3.85326 5.0125 3.6875C5.0125 3.52174 4.94665 3.36277 4.82944 3.24556C4.71223 3.12835 4.55326 3.0625 4.3875 3.0625H2.8875C3.69111 2.22272 4.76219 1.68916 5.91658 1.55354C7.07098 1.41793 8.23655 1.68873 9.21291 2.3194C10.1893 2.95007 10.9154 3.9012 11.2665 5.00924C11.6175 6.11729 11.5716 7.31303 11.1365 8.39087C10.7015 9.46871 9.90447 10.3613 8.8826 10.9152C7.86072 11.4691 6.6778 11.6496 5.53722 11.4258C4.39664 11.202 3.36967 10.5878 2.63287 9.68887C1.89607 8.7899 1.49549 7.66232 1.5 6.5C1.5 6.33424 1.43415 6.17527 1.31694 6.05806C1.19973 5.94085 1.04076 5.875 0.875 5.875C0.70924 5.875 0.550268 5.94085 0.433058 6.05806C0.315848 6.17527 0.25 6.33424 0.25 6.5C0.25 7.73613 0.616556 8.94451 1.30331 9.97231C1.99007 11.0001 2.96619 11.8012 4.10823 12.2742C5.25027 12.7473 6.50693 12.8711 7.71931 12.6299C8.9317 12.3888 10.0453 11.7935 10.9194 10.9194C11.7935 10.0453 12.3888 8.9317 12.6299 7.71931C12.8711 6.50693 12.7473 5.25027 12.2742 4.10823C11.8012 2.96619 11.0001 1.99007 9.97231 1.30331C8.94451 0.616556 7.73613 0.25 6.5 0.25ZM6.5 4C6.33424 4 6.17527 4.06585 6.05806 4.18306C5.94085 4.30027 5.875 4.45924 5.875 4.625V6.5C5.875 6.66576 5.94085 6.82473 6.05806 6.94194C6.17527 7.05915 6.33424 7.125 6.5 7.125H7.75C7.91576 7.125 8.07473 7.05915 8.19194 6.94194C8.30915 6.82473 8.375 6.66576 8.375 6.5C8.375 6.33424 8.30915 6.17527 8.19194 6.05806C8.07473 5.94085 7.91576 5.875 7.75 5.875H7.125V4.625C7.125 4.45924 7.05915 4.30027 6.94194 4.18306C6.82473 4.06585 6.66576 4 6.5 4Z" fill="#7C7C7C"/>
</svg>
